<svg width="124" height="145" viewBox="0 0 124 145" fill="none" xmlns="http://www.w3.org/2000/svg">
<path d="M87.3423 275.7C127.134 286.073 138.04 240.813 137.601 232.526C137.168 224.245 128.528 214.892 127.224 229.273C125.921 243.666 102.497 269.272 70.5481 251.057C38.6045 232.848 31.4659 190.661 16.3052 177.462C1.14957 164.269 -5.24683 145.842 17.7632 170.814C40.7675 195.78 84.6679 196.671 89.1395 183.485C93.6004 170.298 81.4184 163.857 65.2879 171.26C49.1632 178.67 -12.4538 148.445 2.24802 94.4868C16.9436 40.5335 10.3197 10.3244 10.3197 10.3244C10.3197 10.3244 40.5344 16.9432 94.4877 2.24653C148.441 -12.4502 178.671 49.1623 171.261 65.2859C163.852 81.4214 183.481 101.05 196.673 96.5838C209.859 92.1229 195.776 40.7717 170.81 17.7673C145.837 -5.24265 164.27 1.14867 177.463 16.3043C190.662 31.4655 232.843 38.6092 251.058 70.5472C269.273 102.496 243.662 125.925 229.274 127.223C214.887 128.532 220.994 146.412 229.281 146.851C237.568 147.29 286.068 127.139 275.696 87.347C265.335 47.5558 341.982 169.371 213.146 213.151C169.372 341.982 47.5562 265.334 87.3423 275.7ZM94.5775 194.304C92.0103 195.31 90.9548 198.271 92.2209 200.921C93.4869 203.57 96.596 204.904 99.158 203.893C101.725 202.887 102.781 199.926 101.515 197.276C100.249 194.626 97.139 193.293 94.5775 194.304ZM86.1067 37.701C79.1792 36.3503 83.9144 47.2189 92.4156 53.1281C100.923 59.043 107.171 82.578 116.351 83.9716C125.526 85.3715 111.828 67.3563 108.913 51.327C105.992 35.3027 86.1067 37.701 86.1067 37.701ZM222.907 177.177C231.786 173.694 237.244 167.226 235.092 162.73C232.94 158.234 223.997 157.417 215.125 160.905C206.246 164.387 200.788 170.856 202.94 175.352C205.091 179.848 214.035 180.664 222.907 177.177ZM76.0848 99.8503C71.182 94.9474 58.2989 82.8692 47.918 86.1199C37.5422 89.365 45.3001 100.334 49.1728 101.801C53.0511 103.273 84.9947 108.76 76.0848 99.8503ZM123.203 194.739C121.96 187.382 136.243 175.591 130.951 169.309C125.666 163.032 120.942 177.711 110.286 184.888C99.635 192.071 115.385 203.866 115.385 203.866C119.137 208.703 124.446 202.085 123.203 194.739Z" fill="url(#paint0_linear)"/>
<defs>
<linearGradient id="paint0_linear" x1="2.88283" y1="2.88725" x2="275.225" y2="275.226" gradientUnits="userSpaceOnUse">
<stop offset="0.003" stop-color="#FFE000"/>
<stop offset="0.142" stop-color="#DCDE00"/>
<stop offset="0.274" stop-color="#C3DD00"/>
<stop offset="0.393" stop-color="#B4DC00"/>
<stop offset="0.491" stop-color="#AFDC00"/>
<stop offset="0.577" stop-color="#ABD700"/>
<stop offset="0.679" stop-color="#A0C900"/>
<stop offset="0.788" stop-color="#8DB100"/>
<stop offset="0.903" stop-color="#739000"/>
<stop offset="1" stop-color="#586E00"/>
</linearGradient>
</defs>
</svg>
